<mxfile host="app.diagrams.net" agent="Mozilla/5.0 (Linux; Android 10; K) AppleWebKit/537.36 (KHTML, like Gecko) Chrome/131.0.0.0 Mobile Safari/537.36" version="26.1.1">
  <diagram name="PÃ¡gina-1" id="9BifNZWXONW1dGksRy4s">
    <mxGraphModel dx="696" dy="901" grid="0" gridSize="10" guides="1" tooltips="1" connect="1" arrows="1" fold="1" page="0" pageScale="1" pageWidth="827" pageHeight="1169" math="0" shadow="0">
      <root>
        <mxCell id="0" />
        <mxCell id="1" parent="0" />
        <mxCell id="d8brPM1BaWKOj8KLOgNa-1" value="" style="whiteSpace=wrap;html=1;" parent="1" vertex="1">
          <mxGeometry x="49" y="-9" width="680" height="526" as="geometry" />
        </mxCell>
        <mxCell id="d8brPM1BaWKOj8KLOgNa-2" value="Diagrama de Caso de Uso" style="whiteSpace=wrap;html=1;" parent="1" vertex="1">
          <mxGeometry x="373" y="-84" width="120" height="60" as="geometry" />
        </mxCell>
        <mxCell id="cZGYXkIF4Buuqbu_VVax-1" value="Estudiante" style="shape=umlActor;verticalLabelPosition=bottom;verticalAlign=top;html=1;outlineConnect=0;" vertex="1" parent="1">
          <mxGeometry x="-73" y="6" width="93" height="94" as="geometry" />
        </mxCell>
        <mxCell id="cZGYXkIF4Buuqbu_VVax-2" value="Bibliotecario" style="shape=umlActor;verticalLabelPosition=bottom;verticalAlign=top;html=1;outlineConnect=0;" vertex="1" parent="1">
          <mxGeometry x="-79" y="325" width="99" height="94" as="geometry" />
        </mxCell>
        <mxCell id="cZGYXkIF4Buuqbu_VVax-3" value="" style="endArrow=classic;html=1;rounded=0;fontSize=12;startSize=8;endSize=8;curved=1;entryX=0.5;entryY=0;entryDx=0;entryDy=0;entryPerimeter=0;" edge="1" parent="1" target="cZGYXkIF4Buuqbu_VVax-2">
          <mxGeometry width="50" height="50" relative="1" as="geometry">
            <mxPoint x="-25.058421052631562" y="69" as="sourcePoint" />
            <mxPoint x="-27.94" y="288" as="targetPoint" />
          </mxGeometry>
        </mxCell>
      </root>
    </mxGraphModel>
  </diagram>
</mxfile>
